<?xml version="1.0" encoding="UTF-8"?>
<svg xmlns="http://www.w3.org/2000/svg" width="1000" height="455" viewBox="0 0 1000 455">
<style>
text{font-family:Consolas,'Courier New',monospace;fill:#24292f;font-size:15px}
.title{font-size:20px;font-weight:700}
.key{fill:#0969da;font-weight:700}
.value{fill:#1a7f37}
.label{font-size:13px;fill:#57606a}
.muted{font-size:13px;fill:#57606a}
.metric{font-size:22px;font-weight:700;fill:#1a7f37}
.language{font-size:13px;font-weight:700}
.add{fill:#1a7f37}
.del{fill:#cf222e}
</style>
<rect x="1" y="1" width="998" height="453" rx="18" fill="#f6f8fa" stroke="#d0d7de" stroke-width="2"/>
<text x="28" y="38" class="title">GitHub Stats</text>
<text x="972" y="36" text-anchor="end" class="muted">atualizado em 12/07/2026</text>
<line x1="28" y1="54" x2="972" y2="54" stroke="#d0d7de"/>

<text x="28" y="91"><tspan class="key">Repos</tspan><tspan class="muted"> ........ </tspan><tspan class="value">24</tspan><tspan class="muted"> {Contributed: </tspan><tspan class="value">1</tspan><tspan class="muted">} | Stars ........ </tspan><tspan class="value">0</tspan></text>
<text x="28" y="123"><tspan class="key">Commits · 12 meses</tspan><tspan class="muted"> ........ </tspan><tspan class="value">222</tspan><tspan class="muted"> | Followers .... </tspan><tspan class="value">5</tspan></text>
<text x="28" y="155"><tspan class="key">Lines of Code on GitHub</tspan><tspan class="muted"> ... </tspan><tspan class="value">502,543</tspan><tspan class="muted"> (</tspan><tspan class="add">513,970++</tspan><tspan class="muted">, </tspan><tspan class="del">11,427--</tspan><tspan class="muted">)</tspan></text>

<line x1="28" y1="181" x2="972" y2="181" stroke="#d0d7de"/>
<text x="28" y="220" class="title">Atividade · últimos 12 meses</text>
<text x="28" y="264" class="label">CONTRIBUIÇÕES</text><text x="28" y="296" class="metric">238</text>
<text x="205" y="264" class="label">PULL REQUESTS</text><text x="205" y="296" class="metric">1</text>
<text x="365" y="264" class="label">ISSUES</text><text x="365" y="296" class="metric">0</text>
<text x="575" y="220" class="title">Linguagens mais usadas</text>
<text x="575" y="265" class="language">JavaScript</text>
<text x="950" y="265" text-anchor="end" class="muted">34.9%</text>
<rect x="575" y="274" width="325" height="7" rx="3.5" fill="#eaeef2"/>
<rect x="575" y="274" width="113" height="7" rx="3.5" fill="#f1e05a"/>
<text x="575" y="299" class="language">CSS</text>
<text x="950" y="299" text-anchor="end" class="muted">16.4%</text>
<rect x="575" y="308" width="325" height="7" rx="3.5" fill="#eaeef2"/>
<rect x="575" y="308" width="53" height="7" rx="3.5" fill="#663399"/>
<text x="575" y="333" class="language">TypeScript</text>
<text x="950" y="333" text-anchor="end" class="muted">15.8%</text>
<rect x="575" y="342" width="325" height="7" rx="3.5" fill="#eaeef2"/>
<rect x="575" y="342" width="51" height="7" rx="3.5" fill="#3178c6"/>
<text x="575" y="367" class="language">HTML</text>
<text x="950" y="367" text-anchor="end" class="muted">14.9%</text>
<rect x="575" y="376" width="325" height="7" rx="3.5" fill="#eaeef2"/>
<rect x="575" y="376" width="48" height="7" rx="3.5" fill="#e34c26"/>
<text x="575" y="401" class="language">PHP</text>
<text x="950" y="401" text-anchor="end" class="muted">14.7%</text>
<rect x="575" y="410" width="325" height="7" rx="3.5" fill="#eaeef2"/>
<rect x="575" y="410" width="48" height="7" rx="3.5" fill="#4F5D95"/>
</svg>
